<svg width="974" height="548" viewBox="0 0 974 548" fill="none" xmlns="http://www.w3.org/2000/svg">
<rect width="974" height="548" fill="black" fill-opacity="0.08"/>
<g opacity="0.75">
<path d="M426.917 200.75H547.083C554.355 200.75 560.25 206.645 560.25 213.917V334.083C560.25 341.355 554.355 347.25 547.083 347.25H426.917C419.645 347.25 413.75 341.355 413.75 334.083V213.917C413.75 206.645 419.645 200.75 426.917 200.75Z" stroke="white" stroke-width="8" stroke-linecap="round" stroke-linejoin="round"/>
<path d="M461.25 265.417C470.731 265.417 478.417 257.731 478.417 248.25C478.417 238.769 470.731 231.083 461.25 231.083C451.769 231.083 444.083 238.769 444.083 248.25C444.083 257.731 451.769 265.417 461.25 265.417Z" stroke="white" stroke-width="8" stroke-linecap="round" stroke-linejoin="round"/>
<mask id="path-3-inside-1_104_2" fill="white">
<path d="M564.25 299.75L537.762 273.262C534.543 270.044 530.177 268.236 525.625 268.236C521.073 268.236 516.707 270.044 513.488 273.262L435.5 351.25"/>
</mask>
<path d="M558.593 305.407C561.717 308.531 566.783 308.531 569.907 305.407C573.031 302.283 573.031 297.217 569.907 294.093L558.593 305.407ZM537.762 273.262L543.419 267.605L543.418 267.604L537.762 273.262ZM513.488 273.262L507.832 267.604L507.831 267.605L513.488 273.262ZM429.843 345.593C426.719 348.717 426.719 353.783 429.843 356.907C432.967 360.031 438.033 360.031 441.157 356.907L429.843 345.593ZM569.907 294.093L543.419 267.605L532.105 278.919L558.593 305.407L569.907 294.093ZM543.418 267.604C538.698 262.886 532.298 260.236 525.625 260.236V276.236C528.056 276.236 530.387 277.201 532.106 278.92L543.418 267.604ZM525.625 260.236C518.952 260.236 512.552 262.886 507.832 267.604L519.144 278.92C520.863 277.201 523.194 276.236 525.625 276.236V260.236ZM507.831 267.605L429.843 345.593L441.157 356.907L519.145 278.919L507.831 267.605Z" fill="white" mask="url(#path-3-inside-1_104_2)"/>
</g>
</svg>
